<mxfile host="app.diagrams.net" agent="Mozilla/5.0 (Windows NT 10.0; Win64; x64) AppleWebKit/537.36 (KHTML, like Gecko) Chrome/129.0.0.0 Safari/537.36" version="24.7.17">
  <diagram name="Página-1" id="8BGDTDJeWKM5IeX-bzNp">
    <mxGraphModel dx="4327" dy="3026" grid="1" gridSize="10" guides="1" tooltips="1" connect="1" arrows="1" fold="1" page="1" pageScale="1" pageWidth="827" pageHeight="1169" math="0" shadow="0">
      <root>
        <mxCell id="0" />
        <mxCell id="1" parent="0" />
        <mxCell id="o7DQFZc0UQr-MpQ6-a8O-60" style="edgeStyle=orthogonalEdgeStyle;rounded=0;orthogonalLoop=1;jettySize=auto;html=1;entryX=0;entryY=0.5;entryDx=0;entryDy=0;endArrow=none;endFill=0;" parent="1" source="o7DQFZc0UQr-MpQ6-a8O-1" edge="1">
          <mxGeometry relative="1" as="geometry">
            <mxPoint x="350" y="405" as="targetPoint" />
          </mxGeometry>
        </mxCell>
        <mxCell id="o7DQFZc0UQr-MpQ6-a8O-108" value="&lt;b&gt;&lt;i&gt;N&lt;/i&gt;&lt;/b&gt;" style="edgeLabel;html=1;align=center;verticalAlign=middle;resizable=0;points=[];" parent="o7DQFZc0UQr-MpQ6-a8O-60" vertex="1" connectable="0">
          <mxGeometry x="-0.4051" y="1" relative="1" as="geometry">
            <mxPoint as="offset" />
          </mxGeometry>
        </mxCell>
        <mxCell id="o7DQFZc0UQr-MpQ6-a8O-65" style="edgeStyle=orthogonalEdgeStyle;rounded=0;orthogonalLoop=1;jettySize=auto;html=1;entryX=0.5;entryY=1;entryDx=0;entryDy=0;endArrow=none;endFill=0;" parent="1" target="o7DQFZc0UQr-MpQ6-a8O-64" edge="1">
          <mxGeometry relative="1" as="geometry">
            <mxPoint x="150" y="390" as="sourcePoint" />
          </mxGeometry>
        </mxCell>
        <mxCell id="o7DQFZc0UQr-MpQ6-a8O-110" value="&lt;b&gt;&lt;i&gt;1&lt;/i&gt;&lt;/b&gt;" style="edgeLabel;html=1;align=center;verticalAlign=middle;resizable=0;points=[];" parent="o7DQFZc0UQr-MpQ6-a8O-65" vertex="1" connectable="0">
          <mxGeometry x="-0.4071" y="2" relative="1" as="geometry">
            <mxPoint as="offset" />
          </mxGeometry>
        </mxCell>
        <mxCell id="o7DQFZc0UQr-MpQ6-a8O-1" value="Médico" style="rounded=0;whiteSpace=wrap;html=1;" parent="1" vertex="1">
          <mxGeometry x="100" y="375" width="120" height="60" as="geometry" />
        </mxCell>
        <mxCell id="o7DQFZc0UQr-MpQ6-a8O-2" value="Especialidade" style="ellipse;whiteSpace=wrap;html=1;" parent="1" vertex="1">
          <mxGeometry x="173" y="495" width="80" height="40" as="geometry" />
        </mxCell>
        <mxCell id="o7DQFZc0UQr-MpQ6-a8O-3" value="Nome" style="ellipse;whiteSpace=wrap;html=1;" parent="1" vertex="1">
          <mxGeometry x="130" y="455" width="70" height="40" as="geometry" />
        </mxCell>
        <mxCell id="o7DQFZc0UQr-MpQ6-a8O-4" value="Tipo" style="ellipse;whiteSpace=wrap;html=1;" parent="1" vertex="1">
          <mxGeometry x="90" y="495" width="60" height="40" as="geometry" />
        </mxCell>
        <mxCell id="o7DQFZc0UQr-MpQ6-a8O-11" style="edgeStyle=orthogonalEdgeStyle;rounded=0;orthogonalLoop=1;jettySize=auto;html=1;entryX=0.646;entryY=1.004;entryDx=0;entryDy=0;entryPerimeter=0;endArrow=none;endFill=0;" parent="1" source="o7DQFZc0UQr-MpQ6-a8O-3" target="o7DQFZc0UQr-MpQ6-a8O-1" edge="1">
          <mxGeometry relative="1" as="geometry" />
        </mxCell>
        <mxCell id="o7DQFZc0UQr-MpQ6-a8O-12" style="edgeStyle=orthogonalEdgeStyle;rounded=0;orthogonalLoop=1;jettySize=auto;html=1;entryX=0.169;entryY=1.016;entryDx=0;entryDy=0;entryPerimeter=0;endArrow=none;endFill=0;" parent="1" source="o7DQFZc0UQr-MpQ6-a8O-4" target="o7DQFZc0UQr-MpQ6-a8O-1" edge="1">
          <mxGeometry relative="1" as="geometry" />
        </mxCell>
        <mxCell id="o7DQFZc0UQr-MpQ6-a8O-13" style="edgeStyle=orthogonalEdgeStyle;rounded=0;orthogonalLoop=1;jettySize=auto;html=1;entryX=0.943;entryY=0.987;entryDx=0;entryDy=0;entryPerimeter=0;endArrow=none;endFill=0;" parent="1" source="o7DQFZc0UQr-MpQ6-a8O-2" target="o7DQFZc0UQr-MpQ6-a8O-1" edge="1">
          <mxGeometry relative="1" as="geometry" />
        </mxCell>
        <mxCell id="o7DQFZc0UQr-MpQ6-a8O-14" value="Especialidade" style="rounded=0;whiteSpace=wrap;html=1;" parent="1" vertex="1">
          <mxGeometry x="484.5" y="372.5" width="120" height="60" as="geometry" />
        </mxCell>
        <mxCell id="o7DQFZc0UQr-MpQ6-a8O-15" value="Residente" style="ellipse;whiteSpace=wrap;html=1;" parent="1" vertex="1">
          <mxGeometry x="-10" y="392" width="70" height="40" as="geometry" />
        </mxCell>
        <mxCell id="o7DQFZc0UQr-MpQ6-a8O-16" value="Especialista" style="ellipse;whiteSpace=wrap;html=1;" parent="1" vertex="1">
          <mxGeometry x="10" y="325" width="70" height="40" as="geometry" />
        </mxCell>
        <mxCell id="o7DQFZc0UQr-MpQ6-a8O-17" value="Generalista" style="ellipse;whiteSpace=wrap;html=1;" parent="1" vertex="1">
          <mxGeometry x="10" y="465" width="70" height="40" as="geometry" />
        </mxCell>
        <mxCell id="o7DQFZc0UQr-MpQ6-a8O-18" value="Pediatria" style="ellipse;whiteSpace=wrap;html=1;" parent="1" vertex="1">
          <mxGeometry x="455.5" y="552.5" width="70" height="40" as="geometry" />
        </mxCell>
        <mxCell id="o7DQFZc0UQr-MpQ6-a8O-63" style="edgeStyle=orthogonalEdgeStyle;rounded=0;orthogonalLoop=1;jettySize=auto;html=1;entryX=1;entryY=0.75;entryDx=0;entryDy=0;endArrow=none;endFill=0;" parent="1" source="o7DQFZc0UQr-MpQ6-a8O-19" target="o7DQFZc0UQr-MpQ6-a8O-14" edge="1">
          <mxGeometry relative="1" as="geometry" />
        </mxCell>
        <mxCell id="o7DQFZc0UQr-MpQ6-a8O-19" value="&lt;span style=&quot;color: rgb(32, 33, 36); text-align: start; white-space-collapse: preserve; background-color: rgb(255, 255, 255);&quot;&gt;&lt;font style=&quot;font-size: 10px;&quot; face=&quot;Helvetica&quot;&gt;Gastroenterologia &lt;/font&gt;&lt;/span&gt;" style="ellipse;whiteSpace=wrap;html=1;" parent="1" vertex="1">
          <mxGeometry x="604.5" y="492.5" width="89" height="40" as="geometry" />
        </mxCell>
        <mxCell id="o7DQFZc0UQr-MpQ6-a8O-20" value="Clinica Geral" style="ellipse;whiteSpace=wrap;html=1;" parent="1" vertex="1">
          <mxGeometry x="563.5" y="557.5" width="70" height="40" as="geometry" />
        </mxCell>
        <mxCell id="o7DQFZc0UQr-MpQ6-a8O-51" style="edgeStyle=orthogonalEdgeStyle;rounded=0;orthogonalLoop=1;jettySize=auto;html=1;entryX=0.5;entryY=1;entryDx=0;entryDy=0;endArrow=none;endFill=0;" parent="1" source="o7DQFZc0UQr-MpQ6-a8O-21" target="o7DQFZc0UQr-MpQ6-a8O-14" edge="1">
          <mxGeometry relative="1" as="geometry" />
        </mxCell>
        <mxCell id="o7DQFZc0UQr-MpQ6-a8O-21" value="Dermatologia" style="ellipse;whiteSpace=wrap;html=1;" parent="1" vertex="1">
          <mxGeometry x="499.5" y="492.5" width="90" height="40" as="geometry" />
        </mxCell>
        <mxCell id="o7DQFZc0UQr-MpQ6-a8O-61" style="edgeStyle=orthogonalEdgeStyle;rounded=0;orthogonalLoop=1;jettySize=auto;html=1;entryX=0;entryY=0.5;entryDx=0;entryDy=0;endArrow=none;endFill=0;" parent="1" target="o7DQFZc0UQr-MpQ6-a8O-14" edge="1">
          <mxGeometry relative="1" as="geometry">
            <mxPoint x="373.5" y="402.5" as="sourcePoint" />
          </mxGeometry>
        </mxCell>
        <mxCell id="o7DQFZc0UQr-MpQ6-a8O-109" value="&lt;b&gt;&lt;i&gt;N&lt;/i&gt;&lt;/b&gt;" style="edgeLabel;html=1;align=center;verticalAlign=middle;resizable=0;points=[];" parent="o7DQFZc0UQr-MpQ6-a8O-61" vertex="1" connectable="0">
          <mxGeometry x="0.2973" y="2" relative="1" as="geometry">
            <mxPoint as="offset" />
          </mxGeometry>
        </mxCell>
        <mxCell id="o7DQFZc0UQr-MpQ6-a8O-22" value="Tem" style="rhombus;whiteSpace=wrap;html=1;" parent="1" vertex="1">
          <mxGeometry x="325" y="372" width="80" height="60" as="geometry" />
        </mxCell>
        <mxCell id="o7DQFZc0UQr-MpQ6-a8O-77" style="edgeStyle=orthogonalEdgeStyle;rounded=0;orthogonalLoop=1;jettySize=auto;html=1;entryX=0.5;entryY=0;entryDx=0;entryDy=0;endArrow=none;endFill=0;" parent="1" source="o7DQFZc0UQr-MpQ6-a8O-24" target="o7DQFZc0UQr-MpQ6-a8O-75" edge="1">
          <mxGeometry relative="1" as="geometry" />
        </mxCell>
        <mxCell id="o7DQFZc0UQr-MpQ6-a8O-113" value="&lt;b&gt;&lt;i&gt;1&lt;/i&gt;&lt;/b&gt;" style="edgeLabel;html=1;align=center;verticalAlign=middle;resizable=0;points=[];" parent="o7DQFZc0UQr-MpQ6-a8O-77" vertex="1" connectable="0">
          <mxGeometry x="0.5333" y="-3" relative="1" as="geometry">
            <mxPoint y="1" as="offset" />
          </mxGeometry>
        </mxCell>
        <mxCell id="o7DQFZc0UQr-MpQ6-a8O-24" value="Paciente" style="rounded=0;whiteSpace=wrap;html=1;" parent="1" vertex="1">
          <mxGeometry x="90" y="-440" width="120" height="60" as="geometry" />
        </mxCell>
        <mxCell id="o7DQFZc0UQr-MpQ6-a8O-25" value="Nome" style="ellipse;whiteSpace=wrap;html=1;" parent="1" vertex="1">
          <mxGeometry x="220" y="-380" width="70" height="40" as="geometry" />
        </mxCell>
        <mxCell id="o7DQFZc0UQr-MpQ6-a8O-26" value="Data_Nasc" style="ellipse;whiteSpace=wrap;html=1;" parent="1" vertex="1">
          <mxGeometry x="220" y="-320" width="70" height="40" as="geometry" />
        </mxCell>
        <mxCell id="o7DQFZc0UQr-MpQ6-a8O-27" value="Endereço" style="ellipse;whiteSpace=wrap;html=1;" parent="1" vertex="1">
          <mxGeometry x="210" y="-510" width="70" height="40" as="geometry" />
        </mxCell>
        <mxCell id="o7DQFZc0UQr-MpQ6-a8O-28" value="Telefone" style="ellipse;whiteSpace=wrap;html=1;" parent="1" vertex="1">
          <mxGeometry x="340" y="-390" width="70" height="40" as="geometry" />
        </mxCell>
        <mxCell id="o7DQFZc0UQr-MpQ6-a8O-85" style="edgeStyle=orthogonalEdgeStyle;rounded=0;orthogonalLoop=1;jettySize=auto;html=1;endArrow=none;endFill=0;" parent="1" source="o7DQFZc0UQr-MpQ6-a8O-29" target="o7DQFZc0UQr-MpQ6-a8O-24" edge="1">
          <mxGeometry relative="1" as="geometry" />
        </mxCell>
        <mxCell id="o7DQFZc0UQr-MpQ6-a8O-29" value="E-mail" style="ellipse;whiteSpace=wrap;html=1;" parent="1" vertex="1">
          <mxGeometry x="400" y="-430" width="70" height="40" as="geometry" />
        </mxCell>
        <mxCell id="o7DQFZc0UQr-MpQ6-a8O-30" value="CPF" style="ellipse;whiteSpace=wrap;html=1;" parent="1" vertex="1">
          <mxGeometry x="160" y="-280" width="70" height="40" as="geometry" />
        </mxCell>
        <mxCell id="o7DQFZc0UQr-MpQ6-a8O-84" style="edgeStyle=orthogonalEdgeStyle;rounded=0;orthogonalLoop=1;jettySize=auto;html=1;entryX=1;entryY=0.75;entryDx=0;entryDy=0;endArrow=none;endFill=0;" parent="1" source="o7DQFZc0UQr-MpQ6-a8O-31" target="o7DQFZc0UQr-MpQ6-a8O-24" edge="1">
          <mxGeometry relative="1" as="geometry" />
        </mxCell>
        <mxCell id="o7DQFZc0UQr-MpQ6-a8O-31" value="RG" style="ellipse;whiteSpace=wrap;html=1;" parent="1" vertex="1">
          <mxGeometry x="400" y="-340" width="70" height="40" as="geometry" />
        </mxCell>
        <mxCell id="o7DQFZc0UQr-MpQ6-a8O-86" style="edgeStyle=orthogonalEdgeStyle;rounded=0;orthogonalLoop=1;jettySize=auto;html=1;entryX=1;entryY=0.25;entryDx=0;entryDy=0;endArrow=none;endFill=0;" parent="1" source="o7DQFZc0UQr-MpQ6-a8O-32" target="o7DQFZc0UQr-MpQ6-a8O-24" edge="1">
          <mxGeometry relative="1" as="geometry" />
        </mxCell>
        <mxCell id="o7DQFZc0UQr-MpQ6-a8O-32" value="Convenio" style="ellipse;whiteSpace=wrap;html=1;" parent="1" vertex="1">
          <mxGeometry x="330" y="-480" width="70" height="40" as="geometry" />
        </mxCell>
        <mxCell id="o7DQFZc0UQr-MpQ6-a8O-106" style="edgeStyle=orthogonalEdgeStyle;rounded=0;orthogonalLoop=1;jettySize=auto;html=1;entryX=0.5;entryY=0;entryDx=0;entryDy=0;endArrow=none;endFill=0;" parent="1" source="o7DQFZc0UQr-MpQ6-a8O-33" target="o7DQFZc0UQr-MpQ6-a8O-105" edge="1">
          <mxGeometry relative="1" as="geometry" />
        </mxCell>
        <mxCell id="o7DQFZc0UQr-MpQ6-a8O-117" value="&lt;b&gt;&lt;i&gt;N&lt;/i&gt;&lt;/b&gt;" style="edgeLabel;html=1;align=center;verticalAlign=middle;resizable=0;points=[];" parent="o7DQFZc0UQr-MpQ6-a8O-106" vertex="1" connectable="0">
          <mxGeometry x="-0.1813" relative="1" as="geometry">
            <mxPoint as="offset" />
          </mxGeometry>
        </mxCell>
        <mxCell id="o7DQFZc0UQr-MpQ6-a8O-33" value="Convenio" style="rounded=0;whiteSpace=wrap;html=1;" parent="1" vertex="1">
          <mxGeometry x="90" y="-770" width="120" height="60" as="geometry" />
        </mxCell>
        <mxCell id="o7DQFZc0UQr-MpQ6-a8O-34" value="Nome" style="ellipse;whiteSpace=wrap;html=1;" parent="1" vertex="1">
          <mxGeometry x="35" y="-860" width="70" height="40" as="geometry" />
        </mxCell>
        <mxCell id="o7DQFZc0UQr-MpQ6-a8O-103" style="edgeStyle=orthogonalEdgeStyle;rounded=0;orthogonalLoop=1;jettySize=auto;html=1;entryX=0.75;entryY=0;entryDx=0;entryDy=0;endArrow=none;endFill=0;" parent="1" source="o7DQFZc0UQr-MpQ6-a8O-35" target="o7DQFZc0UQr-MpQ6-a8O-33" edge="1">
          <mxGeometry relative="1" as="geometry" />
        </mxCell>
        <mxCell id="o7DQFZc0UQr-MpQ6-a8O-35" value="CNPJ" style="ellipse;whiteSpace=wrap;html=1;" parent="1" vertex="1">
          <mxGeometry x="190" y="-860" width="70" height="40" as="geometry" />
        </mxCell>
        <mxCell id="o7DQFZc0UQr-MpQ6-a8O-102" style="edgeStyle=orthogonalEdgeStyle;rounded=0;orthogonalLoop=1;jettySize=auto;html=1;entryX=0.5;entryY=0;entryDx=0;entryDy=0;endArrow=none;endFill=0;" parent="1" source="o7DQFZc0UQr-MpQ6-a8O-36" target="o7DQFZc0UQr-MpQ6-a8O-33" edge="1">
          <mxGeometry relative="1" as="geometry" />
        </mxCell>
        <mxCell id="o7DQFZc0UQr-MpQ6-a8O-36" value="Tempo_Carencia" style="ellipse;whiteSpace=wrap;html=1;" parent="1" vertex="1">
          <mxGeometry x="105" y="-890" width="90" height="50" as="geometry" />
        </mxCell>
        <mxCell id="o7DQFZc0UQr-MpQ6-a8O-66" style="edgeStyle=orthogonalEdgeStyle;rounded=0;orthogonalLoop=1;jettySize=auto;html=1;entryX=0.5;entryY=0;entryDx=0;entryDy=0;endArrow=none;endFill=0;" parent="1" source="o7DQFZc0UQr-MpQ6-a8O-37" target="o7DQFZc0UQr-MpQ6-a8O-64" edge="1">
          <mxGeometry relative="1" as="geometry" />
        </mxCell>
        <mxCell id="o7DQFZc0UQr-MpQ6-a8O-112" value="&lt;b&gt;&lt;i&gt;N&lt;/i&gt;&lt;/b&gt;" style="edgeLabel;html=1;align=center;verticalAlign=middle;resizable=0;points=[];" parent="o7DQFZc0UQr-MpQ6-a8O-66" vertex="1" connectable="0">
          <mxGeometry x="0.5867" y="-2" relative="1" as="geometry">
            <mxPoint as="offset" />
          </mxGeometry>
        </mxCell>
        <mxCell id="o7DQFZc0UQr-MpQ6-a8O-95" style="edgeStyle=orthogonalEdgeStyle;rounded=0;orthogonalLoop=1;jettySize=auto;html=1;endArrow=none;endFill=0;" parent="1" source="o7DQFZc0UQr-MpQ6-a8O-37" target="o7DQFZc0UQr-MpQ6-a8O-94" edge="1">
          <mxGeometry relative="1" as="geometry" />
        </mxCell>
        <mxCell id="o7DQFZc0UQr-MpQ6-a8O-118" value="&lt;b&gt;&lt;i&gt;1&lt;/i&gt;&lt;/b&gt;" style="edgeLabel;html=1;align=center;verticalAlign=middle;resizable=0;points=[];" parent="o7DQFZc0UQr-MpQ6-a8O-95" vertex="1" connectable="0">
          <mxGeometry x="-0.2294" y="1" relative="1" as="geometry">
            <mxPoint as="offset" />
          </mxGeometry>
        </mxCell>
        <mxCell id="o7DQFZc0UQr-MpQ6-a8O-37" value="Consulta" style="rounded=0;whiteSpace=wrap;html=1;" parent="1" vertex="1">
          <mxGeometry x="90" y="-50" width="120" height="60" as="geometry" />
        </mxCell>
        <mxCell id="o7DQFZc0UQr-MpQ6-a8O-38" value="Data" style="ellipse;whiteSpace=wrap;html=1;" parent="1" vertex="1">
          <mxGeometry x="-40" y="-110" width="70" height="40" as="geometry" />
        </mxCell>
        <mxCell id="o7DQFZc0UQr-MpQ6-a8O-39" value="Hora" style="ellipse;whiteSpace=wrap;html=1;" parent="1" vertex="1">
          <mxGeometry x="168" y="120" width="70" height="40" as="geometry" />
        </mxCell>
        <mxCell id="o7DQFZc0UQr-MpQ6-a8O-40" value="Medico" style="ellipse;whiteSpace=wrap;html=1;" parent="1" vertex="1">
          <mxGeometry x="-40" y="-160" width="70" height="40" as="geometry" />
        </mxCell>
        <mxCell id="o7DQFZc0UQr-MpQ6-a8O-42" value="Paciente" style="ellipse;whiteSpace=wrap;html=1;" parent="1" vertex="1">
          <mxGeometry x="60" y="40" width="70" height="40" as="geometry" />
        </mxCell>
        <mxCell id="o7DQFZc0UQr-MpQ6-a8O-43" value="Valor&lt;span style=&quot;color: rgba(0, 0, 0, 0); font-family: monospace; font-size: 0px; text-align: start; text-wrap: nowrap;&quot;&gt;%3CmxGraphModel%3E%3Croot%3E%3CmxCell%20id%3D%220%22%2F%3E%3CmxCell%20id%3D%221%22%20parent%3D%220%22%2F%3E%3CmxCell%20id%3D%222%22%20value%3D%22Hora%22%20style%3D%22ellipse%3BwhiteSpace%3Dwrap%3Bhtml%3D1%3B%22%20vertex%3D%221%22%20parent%3D%221%22%3E%3CmxGeometry%20x%3D%22330%22%20y%3D%2250%22%20width%3D%2270%22%20height%3D%2240%22%20as%3D%22geometry%22%2F%3E%3C%2FmxCell%3E%3C%2Froot%3E%3C%2FmxGraphModel%3E&lt;/span&gt;&lt;span style=&quot;color: rgba(0, 0, 0, 0); font-family: monospace; font-size: 0px; text-align: start; text-wrap: nowrap;&quot;&gt;%3CmxGraphModel%3E%3Croot%3E%3CmxCell%20id%3D%220%22%2F%3E%3CmxCell%20id%3D%221%22%20parent%3D%220%22%2F%3E%3CmxCell%20id%3D%222%22%20value%3D%22Hora%22%20style%3D%22ellipse%3BwhiteSpace%3Dwrap%3Bhtml%3D1%3B%22%20vertex%3D%221%22%20parent%3D%221%22%3E%3CmxGeometry%20x%3D%22330%22%20y%3D%2250%22%20width%3D%2270%22%20height%3D%2240%22%20as%3D%22geometry%22%2F%3E%3C%2FmxCell%3E%3C%2Froot%3E%3C%2FmxGraphModel%3E&lt;/span&gt;" style="ellipse;whiteSpace=wrap;html=1;" parent="1" vertex="1">
          <mxGeometry y="80" width="70" height="40" as="geometry" />
        </mxCell>
        <mxCell id="o7DQFZc0UQr-MpQ6-a8O-71" style="edgeStyle=orthogonalEdgeStyle;rounded=0;orthogonalLoop=1;jettySize=auto;html=1;entryX=0;entryY=0.75;entryDx=0;entryDy=0;endArrow=none;endFill=0;" parent="1" source="o7DQFZc0UQr-MpQ6-a8O-44" target="o7DQFZc0UQr-MpQ6-a8O-37" edge="1">
          <mxGeometry relative="1" as="geometry" />
        </mxCell>
        <mxCell id="o7DQFZc0UQr-MpQ6-a8O-44" value="Convenio" style="ellipse;whiteSpace=wrap;html=1;" parent="1" vertex="1">
          <mxGeometry x="-40" y="30" width="70" height="40" as="geometry" />
        </mxCell>
        <mxCell id="o7DQFZc0UQr-MpQ6-a8O-67" style="edgeStyle=orthogonalEdgeStyle;rounded=0;orthogonalLoop=1;jettySize=auto;html=1;entryX=0;entryY=0.5;entryDx=0;entryDy=0;endArrow=none;endFill=0;" parent="1" source="o7DQFZc0UQr-MpQ6-a8O-45" target="o7DQFZc0UQr-MpQ6-a8O-37" edge="1">
          <mxGeometry relative="1" as="geometry" />
        </mxCell>
        <mxCell id="o7DQFZc0UQr-MpQ6-a8O-45" value="Num_Carteira" style="ellipse;whiteSpace=wrap;html=1;" parent="1" vertex="1">
          <mxGeometry x="-50" y="-45" width="80" height="50" as="geometry" />
        </mxCell>
        <mxCell id="o7DQFZc0UQr-MpQ6-a8O-46" value="Especialidade" style="ellipse;whiteSpace=wrap;html=1;" parent="1" vertex="1">
          <mxGeometry x="60" y="120" width="70" height="40" as="geometry" />
        </mxCell>
        <mxCell id="o7DQFZc0UQr-MpQ6-a8O-47" value="Receita" style="rounded=0;whiteSpace=wrap;html=1;" parent="1" vertex="1">
          <mxGeometry x="548.27" y="-50" width="120" height="60" as="geometry" />
        </mxCell>
        <mxCell id="o7DQFZc0UQr-MpQ6-a8O-48" value="Medicamento" style="ellipse;whiteSpace=wrap;html=1;" parent="1" vertex="1">
          <mxGeometry x="618.27" y="60" width="80" height="40" as="geometry" />
        </mxCell>
        <mxCell id="o7DQFZc0UQr-MpQ6-a8O-49" value="Quantidade" style="ellipse;whiteSpace=wrap;html=1;" parent="1" vertex="1">
          <mxGeometry x="519.27" y="50" width="80" height="40" as="geometry" />
        </mxCell>
        <mxCell id="o7DQFZc0UQr-MpQ6-a8O-98" style="edgeStyle=orthogonalEdgeStyle;rounded=0;orthogonalLoop=1;jettySize=auto;html=1;entryX=0.5;entryY=1;entryDx=0;entryDy=0;endArrow=none;endFill=0;" parent="1" source="o7DQFZc0UQr-MpQ6-a8O-50" target="o7DQFZc0UQr-MpQ6-a8O-47" edge="1">
          <mxGeometry relative="1" as="geometry" />
        </mxCell>
        <mxCell id="o7DQFZc0UQr-MpQ6-a8O-50" value="Instruções" style="ellipse;whiteSpace=wrap;html=1;" parent="1" vertex="1">
          <mxGeometry x="568.27" y="100" width="80" height="40" as="geometry" />
        </mxCell>
        <mxCell id="o7DQFZc0UQr-MpQ6-a8O-54" style="edgeStyle=orthogonalEdgeStyle;rounded=0;orthogonalLoop=1;jettySize=auto;html=1;endArrow=none;endFill=0;" parent="1" source="o7DQFZc0UQr-MpQ6-a8O-20" edge="1">
          <mxGeometry relative="1" as="geometry">
            <mxPoint x="598.5" y="432.5" as="targetPoint" />
          </mxGeometry>
        </mxCell>
        <mxCell id="o7DQFZc0UQr-MpQ6-a8O-55" style="edgeStyle=orthogonalEdgeStyle;rounded=0;orthogonalLoop=1;jettySize=auto;html=1;entryX=0.046;entryY=1.005;entryDx=0;entryDy=0;entryPerimeter=0;endArrow=none;endFill=0;" parent="1" source="o7DQFZc0UQr-MpQ6-a8O-18" target="o7DQFZc0UQr-MpQ6-a8O-14" edge="1">
          <mxGeometry relative="1" as="geometry" />
        </mxCell>
        <mxCell id="o7DQFZc0UQr-MpQ6-a8O-57" style="edgeStyle=orthogonalEdgeStyle;rounded=0;orthogonalLoop=1;jettySize=auto;html=1;entryX=0.063;entryY=1.038;entryDx=0;entryDy=0;entryPerimeter=0;endArrow=none;endFill=0;" parent="1" source="o7DQFZc0UQr-MpQ6-a8O-17" target="o7DQFZc0UQr-MpQ6-a8O-1" edge="1">
          <mxGeometry relative="1" as="geometry" />
        </mxCell>
        <mxCell id="o7DQFZc0UQr-MpQ6-a8O-58" style="edgeStyle=orthogonalEdgeStyle;rounded=0;orthogonalLoop=1;jettySize=auto;html=1;endArrow=none;endFill=0;" parent="1" source="o7DQFZc0UQr-MpQ6-a8O-15" edge="1">
          <mxGeometry relative="1" as="geometry">
            <mxPoint x="100" y="412" as="targetPoint" />
          </mxGeometry>
        </mxCell>
        <mxCell id="o7DQFZc0UQr-MpQ6-a8O-59" style="edgeStyle=orthogonalEdgeStyle;rounded=0;orthogonalLoop=1;jettySize=auto;html=1;entryX=0.158;entryY=-0.014;entryDx=0;entryDy=0;entryPerimeter=0;endArrow=none;endFill=0;" parent="1" source="o7DQFZc0UQr-MpQ6-a8O-16" target="o7DQFZc0UQr-MpQ6-a8O-1" edge="1">
          <mxGeometry relative="1" as="geometry" />
        </mxCell>
        <mxCell id="o7DQFZc0UQr-MpQ6-a8O-64" value="Realiza" style="rhombus;whiteSpace=wrap;html=1;" parent="1" vertex="1">
          <mxGeometry x="110" y="220" width="80" height="60" as="geometry" />
        </mxCell>
        <mxCell id="o7DQFZc0UQr-MpQ6-a8O-70" style="edgeStyle=orthogonalEdgeStyle;rounded=0;orthogonalLoop=1;jettySize=auto;html=1;entryX=0.043;entryY=1.014;entryDx=0;entryDy=0;entryPerimeter=0;endArrow=none;endFill=0;" parent="1" source="o7DQFZc0UQr-MpQ6-a8O-42" target="o7DQFZc0UQr-MpQ6-a8O-37" edge="1">
          <mxGeometry relative="1" as="geometry" />
        </mxCell>
        <mxCell id="o7DQFZc0UQr-MpQ6-a8O-72" style="edgeStyle=orthogonalEdgeStyle;rounded=0;orthogonalLoop=1;jettySize=auto;html=1;entryX=0;entryY=0.167;entryDx=0;entryDy=0;entryPerimeter=0;endArrow=none;endFill=0;" parent="1" source="o7DQFZc0UQr-MpQ6-a8O-38" target="o7DQFZc0UQr-MpQ6-a8O-37" edge="1">
          <mxGeometry relative="1" as="geometry" />
        </mxCell>
        <mxCell id="o7DQFZc0UQr-MpQ6-a8O-76" style="edgeStyle=orthogonalEdgeStyle;rounded=0;orthogonalLoop=1;jettySize=auto;html=1;entryX=0.5;entryY=0;entryDx=0;entryDy=0;endArrow=none;endFill=0;" parent="1" source="o7DQFZc0UQr-MpQ6-a8O-75" target="o7DQFZc0UQr-MpQ6-a8O-37" edge="1">
          <mxGeometry relative="1" as="geometry" />
        </mxCell>
        <mxCell id="o7DQFZc0UQr-MpQ6-a8O-114" value="&lt;b&gt;&lt;i&gt;N&lt;/i&gt;&lt;/b&gt;" style="edgeLabel;html=1;align=center;verticalAlign=middle;resizable=0;points=[];" parent="o7DQFZc0UQr-MpQ6-a8O-76" vertex="1" connectable="0">
          <mxGeometry x="-0.094" y="-1" relative="1" as="geometry">
            <mxPoint as="offset" />
          </mxGeometry>
        </mxCell>
        <mxCell id="o7DQFZc0UQr-MpQ6-a8O-75" value="Realiza" style="rhombus;whiteSpace=wrap;html=1;" parent="1" vertex="1">
          <mxGeometry x="110" y="-240" width="80" height="60" as="geometry" />
        </mxCell>
        <mxCell id="o7DQFZc0UQr-MpQ6-a8O-83" style="edgeStyle=orthogonalEdgeStyle;rounded=0;orthogonalLoop=1;jettySize=auto;html=1;entryX=0.934;entryY=1.002;entryDx=0;entryDy=0;entryPerimeter=0;endArrow=none;endFill=0;" parent="1" source="o7DQFZc0UQr-MpQ6-a8O-30" target="o7DQFZc0UQr-MpQ6-a8O-24" edge="1">
          <mxGeometry relative="1" as="geometry">
            <Array as="points">
              <mxPoint x="195" y="-380" />
              <mxPoint x="202" y="-380" />
            </Array>
          </mxGeometry>
        </mxCell>
        <mxCell id="o7DQFZc0UQr-MpQ6-a8O-91" style="edgeStyle=orthogonalEdgeStyle;rounded=0;orthogonalLoop=1;jettySize=auto;html=1;entryX=0.1;entryY=0.05;entryDx=0;entryDy=0;entryPerimeter=0;endArrow=none;endFill=0;" parent="1" source="o7DQFZc0UQr-MpQ6-a8O-40" target="o7DQFZc0UQr-MpQ6-a8O-37" edge="1">
          <mxGeometry relative="1" as="geometry" />
        </mxCell>
        <mxCell id="o7DQFZc0UQr-MpQ6-a8O-92" style="edgeStyle=orthogonalEdgeStyle;rounded=0;orthogonalLoop=1;jettySize=auto;html=1;entryX=0.408;entryY=1.033;entryDx=0;entryDy=0;entryPerimeter=0;endArrow=none;endFill=0;" parent="1" source="o7DQFZc0UQr-MpQ6-a8O-46" target="o7DQFZc0UQr-MpQ6-a8O-37" edge="1">
          <mxGeometry relative="1" as="geometry">
            <Array as="points">
              <mxPoint x="139" y="140" />
            </Array>
          </mxGeometry>
        </mxCell>
        <mxCell id="o7DQFZc0UQr-MpQ6-a8O-93" style="edgeStyle=orthogonalEdgeStyle;rounded=0;orthogonalLoop=1;jettySize=auto;html=1;entryX=0.942;entryY=1;entryDx=0;entryDy=0;entryPerimeter=0;endArrow=none;endFill=0;" parent="1" source="o7DQFZc0UQr-MpQ6-a8O-39" target="o7DQFZc0UQr-MpQ6-a8O-37" edge="1">
          <mxGeometry relative="1" as="geometry" />
        </mxCell>
        <mxCell id="o7DQFZc0UQr-MpQ6-a8O-96" style="edgeStyle=orthogonalEdgeStyle;rounded=0;orthogonalLoop=1;jettySize=auto;html=1;endArrow=none;endFill=0;" parent="1" source="o7DQFZc0UQr-MpQ6-a8O-94" edge="1">
          <mxGeometry relative="1" as="geometry">
            <mxPoint x="550" y="-20" as="targetPoint" />
          </mxGeometry>
        </mxCell>
        <mxCell id="o7DQFZc0UQr-MpQ6-a8O-120" value="&lt;b&gt;&lt;i&gt;1&lt;/i&gt;&lt;/b&gt;" style="edgeLabel;html=1;align=center;verticalAlign=middle;resizable=0;points=[];" parent="o7DQFZc0UQr-MpQ6-a8O-96" vertex="1" connectable="0">
          <mxGeometry x="0.1565" relative="1" as="geometry">
            <mxPoint x="-52" as="offset" />
          </mxGeometry>
        </mxCell>
        <mxCell id="o7DQFZc0UQr-MpQ6-a8O-94" value="Gera" style="rhombus;whiteSpace=wrap;html=1;" parent="1" vertex="1">
          <mxGeometry x="335" y="-50" width="80" height="60" as="geometry" />
        </mxCell>
        <mxCell id="o7DQFZc0UQr-MpQ6-a8O-99" style="edgeStyle=orthogonalEdgeStyle;rounded=0;orthogonalLoop=1;jettySize=auto;html=1;entryX=0.909;entryY=0.968;entryDx=0;entryDy=0;entryPerimeter=0;endArrow=none;endFill=0;" parent="1" source="o7DQFZc0UQr-MpQ6-a8O-48" target="o7DQFZc0UQr-MpQ6-a8O-47" edge="1">
          <mxGeometry relative="1" as="geometry" />
        </mxCell>
        <mxCell id="o7DQFZc0UQr-MpQ6-a8O-100" style="edgeStyle=orthogonalEdgeStyle;rounded=0;orthogonalLoop=1;jettySize=auto;html=1;entryX=0.093;entryY=0.968;entryDx=0;entryDy=0;entryPerimeter=0;endArrow=none;endFill=0;" parent="1" source="o7DQFZc0UQr-MpQ6-a8O-49" target="o7DQFZc0UQr-MpQ6-a8O-47" edge="1">
          <mxGeometry relative="1" as="geometry" />
        </mxCell>
        <mxCell id="o7DQFZc0UQr-MpQ6-a8O-101" style="edgeStyle=orthogonalEdgeStyle;rounded=0;orthogonalLoop=1;jettySize=auto;html=1;exitX=0.5;exitY=1;exitDx=0;exitDy=0;" parent="1" source="o7DQFZc0UQr-MpQ6-a8O-36" target="o7DQFZc0UQr-MpQ6-a8O-36" edge="1">
          <mxGeometry relative="1" as="geometry" />
        </mxCell>
        <mxCell id="o7DQFZc0UQr-MpQ6-a8O-104" style="edgeStyle=orthogonalEdgeStyle;rounded=0;orthogonalLoop=1;jettySize=auto;html=1;entryX=0.2;entryY=0.018;entryDx=0;entryDy=0;entryPerimeter=0;endArrow=none;endFill=0;" parent="1" source="o7DQFZc0UQr-MpQ6-a8O-34" target="o7DQFZc0UQr-MpQ6-a8O-33" edge="1">
          <mxGeometry relative="1" as="geometry" />
        </mxCell>
        <mxCell id="o7DQFZc0UQr-MpQ6-a8O-107" style="edgeStyle=orthogonalEdgeStyle;rounded=0;orthogonalLoop=1;jettySize=auto;html=1;entryX=0.5;entryY=0;entryDx=0;entryDy=0;endArrow=none;endFill=0;" parent="1" source="o7DQFZc0UQr-MpQ6-a8O-105" target="o7DQFZc0UQr-MpQ6-a8O-24" edge="1">
          <mxGeometry relative="1" as="geometry" />
        </mxCell>
        <mxCell id="o7DQFZc0UQr-MpQ6-a8O-116" value="&lt;b&gt;&lt;i&gt;1&lt;/i&gt;&lt;/b&gt;" style="edgeLabel;html=1;align=center;verticalAlign=middle;resizable=0;points=[];" parent="o7DQFZc0UQr-MpQ6-a8O-107" vertex="1" connectable="0">
          <mxGeometry x="0.1422" relative="1" as="geometry">
            <mxPoint as="offset" />
          </mxGeometry>
        </mxCell>
        <mxCell id="o7DQFZc0UQr-MpQ6-a8O-105" value="Tem" style="rhombus;whiteSpace=wrap;html=1;" parent="1" vertex="1">
          <mxGeometry x="110" y="-614" width="80" height="60" as="geometry" />
        </mxCell>
        <mxCell id="imlky3PJbBzfM2MdHc2w-3" style="edgeStyle=orthogonalEdgeStyle;rounded=0;orthogonalLoop=1;jettySize=auto;html=1;entryX=1.023;entryY=0.862;entryDx=0;entryDy=0;entryPerimeter=0;endArrow=none;endFill=0;" edge="1" parent="1" source="imlky3PJbBzfM2MdHc2w-2" target="o7DQFZc0UQr-MpQ6-a8O-1">
          <mxGeometry relative="1" as="geometry">
            <mxPoint x="230" y="425" as="targetPoint" />
            <Array as="points">
              <mxPoint x="230" y="425" />
              <mxPoint x="220" y="425" />
              <mxPoint x="220" y="427" />
            </Array>
          </mxGeometry>
        </mxCell>
        <mxCell id="imlky3PJbBzfM2MdHc2w-2" value="id_Medico" style="ellipse;whiteSpace=wrap;html=1;align=center;fontStyle=4;" vertex="1" parent="1">
          <mxGeometry x="230" y="445" width="60" height="40" as="geometry" />
        </mxCell>
        <mxCell id="imlky3PJbBzfM2MdHc2w-4" value="id_especialidade" style="ellipse;whiteSpace=wrap;html=1;align=center;fontStyle=4;" vertex="1" parent="1">
          <mxGeometry x="653.5" y="372.5" width="100" height="40" as="geometry" />
        </mxCell>
        <mxCell id="imlky3PJbBzfM2MdHc2w-5" style="edgeStyle=orthogonalEdgeStyle;rounded=0;orthogonalLoop=1;jettySize=auto;html=1;entryX=1.01;entryY=0.327;entryDx=0;entryDy=0;entryPerimeter=0;endArrow=none;endFill=0;" edge="1" parent="1" source="imlky3PJbBzfM2MdHc2w-4" target="o7DQFZc0UQr-MpQ6-a8O-14">
          <mxGeometry relative="1" as="geometry" />
        </mxCell>
        <mxCell id="imlky3PJbBzfM2MdHc2w-6" value="id_Paciente" style="ellipse;whiteSpace=wrap;html=1;align=center;fontStyle=4;" vertex="1" parent="1">
          <mxGeometry x="370" y="-540" width="65" height="40" as="geometry" />
        </mxCell>
        <mxCell id="imlky3PJbBzfM2MdHc2w-7" style="edgeStyle=orthogonalEdgeStyle;rounded=0;orthogonalLoop=1;jettySize=auto;html=1;entryX=0.812;entryY=-0.025;entryDx=0;entryDy=0;entryPerimeter=0;endArrow=none;endFill=0;" edge="1" parent="1" source="imlky3PJbBzfM2MdHc2w-6" target="o7DQFZc0UQr-MpQ6-a8O-24">
          <mxGeometry relative="1" as="geometry" />
        </mxCell>
        <mxCell id="imlky3PJbBzfM2MdHc2w-9" style="edgeStyle=orthogonalEdgeStyle;rounded=0;orthogonalLoop=1;jettySize=auto;html=1;entryX=1;entryY=0.5;entryDx=0;entryDy=0;endArrow=none;endFill=0;" edge="1" parent="1" source="imlky3PJbBzfM2MdHc2w-8" target="o7DQFZc0UQr-MpQ6-a8O-33">
          <mxGeometry relative="1" as="geometry" />
        </mxCell>
        <mxCell id="imlky3PJbBzfM2MdHc2w-8" value="id_Conveio" style="ellipse;whiteSpace=wrap;html=1;align=center;fontStyle=4;" vertex="1" parent="1">
          <mxGeometry x="275" y="-760" width="65" height="40" as="geometry" />
        </mxCell>
        <mxCell id="imlky3PJbBzfM2MdHc2w-11" style="edgeStyle=orthogonalEdgeStyle;rounded=0;orthogonalLoop=1;jettySize=auto;html=1;entryX=1.009;entryY=0.93;entryDx=0;entryDy=0;entryPerimeter=0;endArrow=none;endFill=0;" edge="1" parent="1" source="o7DQFZc0UQr-MpQ6-a8O-25" target="o7DQFZc0UQr-MpQ6-a8O-24">
          <mxGeometry relative="1" as="geometry">
            <Array as="points">
              <mxPoint x="210" y="-360" />
              <mxPoint x="210" y="-384" />
            </Array>
          </mxGeometry>
        </mxCell>
        <mxCell id="imlky3PJbBzfM2MdHc2w-12" style="edgeStyle=orthogonalEdgeStyle;rounded=0;orthogonalLoop=1;jettySize=auto;html=1;endArrow=none;endFill=0;" edge="1" parent="1" source="o7DQFZc0UQr-MpQ6-a8O-26">
          <mxGeometry relative="1" as="geometry">
            <mxPoint x="210" y="-380" as="targetPoint" />
            <Array as="points">
              <mxPoint x="206" y="-300" />
            </Array>
          </mxGeometry>
        </mxCell>
        <mxCell id="imlky3PJbBzfM2MdHc2w-13" style="edgeStyle=orthogonalEdgeStyle;rounded=0;orthogonalLoop=1;jettySize=auto;html=1;entryX=0.918;entryY=0.02;entryDx=0;entryDy=0;entryPerimeter=0;endArrow=none;endFill=0;" edge="1" parent="1" source="o7DQFZc0UQr-MpQ6-a8O-27" target="o7DQFZc0UQr-MpQ6-a8O-24">
          <mxGeometry relative="1" as="geometry" />
        </mxCell>
        <mxCell id="imlky3PJbBzfM2MdHc2w-15" style="edgeStyle=orthogonalEdgeStyle;rounded=0;orthogonalLoop=1;jettySize=auto;html=1;entryX=1;entryY=0.5;entryDx=0;entryDy=0;endArrow=none;endFill=0;" edge="1" parent="1" source="imlky3PJbBzfM2MdHc2w-14" target="o7DQFZc0UQr-MpQ6-a8O-47">
          <mxGeometry relative="1" as="geometry" />
        </mxCell>
        <mxCell id="imlky3PJbBzfM2MdHc2w-14" value="id_receita" style="ellipse;whiteSpace=wrap;html=1;align=center;fontStyle=4;" vertex="1" parent="1">
          <mxGeometry x="698.27" y="-40" width="65" height="40" as="geometry" />
        </mxCell>
        <mxCell id="imlky3PJbBzfM2MdHc2w-17" style="edgeStyle=orthogonalEdgeStyle;rounded=0;orthogonalLoop=1;jettySize=auto;html=1;entryX=1;entryY=0.75;entryDx=0;entryDy=0;endArrow=none;endFill=0;" edge="1" parent="1" source="imlky3PJbBzfM2MdHc2w-16" target="o7DQFZc0UQr-MpQ6-a8O-37">
          <mxGeometry relative="1" as="geometry">
            <Array as="points">
              <mxPoint x="220" y="70" />
              <mxPoint x="220" y="-5" />
            </Array>
          </mxGeometry>
        </mxCell>
        <mxCell id="imlky3PJbBzfM2MdHc2w-16" value="id_consulta" style="ellipse;whiteSpace=wrap;html=1;align=center;fontStyle=4;" vertex="1" parent="1">
          <mxGeometry x="225" y="50" width="65" height="40" as="geometry" />
        </mxCell>
        <mxCell id="imlky3PJbBzfM2MdHc2w-22" style="edgeStyle=orthogonalEdgeStyle;rounded=0;orthogonalLoop=1;jettySize=auto;html=1;entryX=0;entryY=0.5;entryDx=0;entryDy=0;endArrow=none;endFill=0;" edge="1" parent="1" source="imlky3PJbBzfM2MdHc2w-19" target="o7DQFZc0UQr-MpQ6-a8O-24">
          <mxGeometry relative="1" as="geometry" />
        </mxCell>
        <mxCell id="imlky3PJbBzfM2MdHc2w-68" value="1" style="edgeLabel;html=1;align=center;verticalAlign=middle;resizable=0;points=[];" vertex="1" connectable="0" parent="imlky3PJbBzfM2MdHc2w-22">
          <mxGeometry x="0.1556" y="2" relative="1" as="geometry">
            <mxPoint as="offset" />
          </mxGeometry>
        </mxCell>
        <mxCell id="imlky3PJbBzfM2MdHc2w-69" value="&lt;b&gt;&lt;i&gt;1&lt;/i&gt;&lt;/b&gt;" style="edgeLabel;html=1;align=center;verticalAlign=middle;resizable=0;points=[];" vertex="1" connectable="0" parent="imlky3PJbBzfM2MdHc2w-22">
          <mxGeometry x="0.1474" y="3" relative="1" as="geometry">
            <mxPoint as="offset" />
          </mxGeometry>
        </mxCell>
        <mxCell id="imlky3PJbBzfM2MdHc2w-19" value="Faz" style="rhombus;whiteSpace=wrap;html=1;" vertex="1" parent="1">
          <mxGeometry x="-50" y="-445" width="80" height="70" as="geometry" />
        </mxCell>
        <mxCell id="imlky3PJbBzfM2MdHc2w-21" style="edgeStyle=orthogonalEdgeStyle;rounded=0;orthogonalLoop=1;jettySize=auto;html=1;entryX=0;entryY=0.5;entryDx=0;entryDy=0;endArrow=none;endFill=0;" edge="1" parent="1" source="imlky3PJbBzfM2MdHc2w-20" target="imlky3PJbBzfM2MdHc2w-19">
          <mxGeometry relative="1" as="geometry" />
        </mxCell>
        <mxCell id="imlky3PJbBzfM2MdHc2w-70" value="&lt;b&gt;&lt;i&gt;N&lt;/i&gt;&lt;/b&gt;" style="edgeLabel;html=1;align=center;verticalAlign=middle;resizable=0;points=[];" vertex="1" connectable="0" parent="imlky3PJbBzfM2MdHc2w-21">
          <mxGeometry x="-0.0605" y="-1" relative="1" as="geometry">
            <mxPoint as="offset" />
          </mxGeometry>
        </mxCell>
        <mxCell id="imlky3PJbBzfM2MdHc2w-36" style="edgeStyle=orthogonalEdgeStyle;rounded=0;orthogonalLoop=1;jettySize=auto;html=1;entryX=1;entryY=0.5;entryDx=0;entryDy=0;endArrow=none;endFill=0;" edge="1" parent="1" source="imlky3PJbBzfM2MdHc2w-20" target="imlky3PJbBzfM2MdHc2w-25">
          <mxGeometry relative="1" as="geometry" />
        </mxCell>
        <mxCell id="imlky3PJbBzfM2MdHc2w-71" value="&lt;b&gt;&lt;i&gt;N&lt;/i&gt;&lt;/b&gt;" style="edgeLabel;html=1;align=center;verticalAlign=middle;resizable=0;points=[];" vertex="1" connectable="0" parent="imlky3PJbBzfM2MdHc2w-36">
          <mxGeometry x="-0.13" y="-1" relative="1" as="geometry">
            <mxPoint as="offset" />
          </mxGeometry>
        </mxCell>
        <mxCell id="imlky3PJbBzfM2MdHc2w-43" style="edgeStyle=orthogonalEdgeStyle;rounded=0;orthogonalLoop=1;jettySize=auto;html=1;entryX=0.5;entryY=1;entryDx=0;entryDy=0;endArrow=none;endFill=0;" edge="1" parent="1" source="imlky3PJbBzfM2MdHc2w-20" target="imlky3PJbBzfM2MdHc2w-24">
          <mxGeometry relative="1" as="geometry" />
        </mxCell>
        <mxCell id="imlky3PJbBzfM2MdHc2w-76" value="&lt;b&gt;&lt;i&gt;N&lt;/i&gt;&lt;/b&gt;" style="edgeLabel;html=1;align=center;verticalAlign=middle;resizable=0;points=[];" vertex="1" connectable="0" parent="imlky3PJbBzfM2MdHc2w-43">
          <mxGeometry x="-0.0842" relative="1" as="geometry">
            <mxPoint as="offset" />
          </mxGeometry>
        </mxCell>
        <mxCell id="imlky3PJbBzfM2MdHc2w-20" value="Internação" style="rounded=0;whiteSpace=wrap;html=1;" vertex="1" parent="1">
          <mxGeometry x="-250" y="-440" width="120" height="60" as="geometry" />
        </mxCell>
        <mxCell id="imlky3PJbBzfM2MdHc2w-23" style="edgeStyle=orthogonalEdgeStyle;rounded=0;orthogonalLoop=1;jettySize=auto;html=1;exitX=0.5;exitY=1;exitDx=0;exitDy=0;" edge="1" parent="1" source="o7DQFZc0UQr-MpQ6-a8O-37" target="o7DQFZc0UQr-MpQ6-a8O-37">
          <mxGeometry relative="1" as="geometry" />
        </mxCell>
        <mxCell id="imlky3PJbBzfM2MdHc2w-24" value="Requer" style="rhombus;whiteSpace=wrap;html=1;" vertex="1" parent="1">
          <mxGeometry x="-230" y="-610" width="80" height="70" as="geometry" />
        </mxCell>
        <mxCell id="imlky3PJbBzfM2MdHc2w-25" value="Ocupa" style="rhombus;whiteSpace=wrap;html=1;" vertex="1" parent="1">
          <mxGeometry x="-413" y="-445" width="80" height="70" as="geometry" />
        </mxCell>
        <mxCell id="imlky3PJbBzfM2MdHc2w-26" value="id_internação" style="ellipse;whiteSpace=wrap;html=1;align=center;fontStyle=4;" vertex="1" parent="1">
          <mxGeometry x="-310" y="-370" width="70" height="40" as="geometry" />
        </mxCell>
        <mxCell id="imlky3PJbBzfM2MdHc2w-33" style="edgeStyle=orthogonalEdgeStyle;rounded=0;orthogonalLoop=1;jettySize=auto;html=1;entryX=0.5;entryY=1;entryDx=0;entryDy=0;endArrow=none;endFill=0;" edge="1" parent="1" source="imlky3PJbBzfM2MdHc2w-27" target="imlky3PJbBzfM2MdHc2w-20">
          <mxGeometry relative="1" as="geometry" />
        </mxCell>
        <mxCell id="imlky3PJbBzfM2MdHc2w-27" value="Data_entrada" style="ellipse;whiteSpace=wrap;html=1;" vertex="1" parent="1">
          <mxGeometry x="-230" y="-290" width="80" height="45" as="geometry" />
        </mxCell>
        <mxCell id="imlky3PJbBzfM2MdHc2w-28" value="Data_alta" style="ellipse;whiteSpace=wrap;html=1;" vertex="1" parent="1">
          <mxGeometry x="-120" y="-375" width="70" height="40" as="geometry" />
        </mxCell>
        <mxCell id="imlky3PJbBzfM2MdHc2w-29" value="Data_Presvi&lt;div&gt;Alta&lt;/div&gt;" style="ellipse;whiteSpace=wrap;html=1;" vertex="1" parent="1">
          <mxGeometry x="-160" y="-330" width="70" height="40" as="geometry" />
        </mxCell>
        <mxCell id="imlky3PJbBzfM2MdHc2w-30" value="Procedimentos" style="ellipse;whiteSpace=wrap;html=1;" vertex="1" parent="1">
          <mxGeometry x="-315" y="-320" width="85" height="40" as="geometry" />
        </mxCell>
        <mxCell id="imlky3PJbBzfM2MdHc2w-31" style="edgeStyle=orthogonalEdgeStyle;rounded=0;orthogonalLoop=1;jettySize=auto;html=1;entryX=1;entryY=0.75;entryDx=0;entryDy=0;endArrow=none;endFill=0;" edge="1" parent="1" source="imlky3PJbBzfM2MdHc2w-28" target="imlky3PJbBzfM2MdHc2w-20">
          <mxGeometry relative="1" as="geometry">
            <Array as="points">
              <mxPoint x="-127" y="-355" />
              <mxPoint x="-127" y="-395" />
            </Array>
          </mxGeometry>
        </mxCell>
        <mxCell id="imlky3PJbBzfM2MdHc2w-32" style="edgeStyle=orthogonalEdgeStyle;rounded=0;orthogonalLoop=1;jettySize=auto;html=1;entryX=0.833;entryY=1;entryDx=0;entryDy=0;entryPerimeter=0;endArrow=none;endFill=0;" edge="1" parent="1" source="imlky3PJbBzfM2MdHc2w-29" target="imlky3PJbBzfM2MdHc2w-20">
          <mxGeometry relative="1" as="geometry">
            <Array as="points">
              <mxPoint x="-140" y="-380" />
            </Array>
          </mxGeometry>
        </mxCell>
        <mxCell id="imlky3PJbBzfM2MdHc2w-34" style="edgeStyle=orthogonalEdgeStyle;rounded=0;orthogonalLoop=1;jettySize=auto;html=1;entryX=0.32;entryY=0.992;entryDx=0;entryDy=0;entryPerimeter=0;endArrow=none;endFill=0;" edge="1" parent="1" source="imlky3PJbBzfM2MdHc2w-30" target="imlky3PJbBzfM2MdHc2w-20">
          <mxGeometry relative="1" as="geometry">
            <Array as="points">
              <mxPoint x="-211" y="-300" />
              <mxPoint x="-211" y="-350" />
              <mxPoint x="-212" y="-350" />
            </Array>
          </mxGeometry>
        </mxCell>
        <mxCell id="imlky3PJbBzfM2MdHc2w-35" style="edgeStyle=orthogonalEdgeStyle;rounded=0;orthogonalLoop=1;jettySize=auto;html=1;entryX=0.167;entryY=1;entryDx=0;entryDy=0;entryPerimeter=0;endArrow=none;endFill=0;" edge="1" parent="1" source="imlky3PJbBzfM2MdHc2w-26" target="imlky3PJbBzfM2MdHc2w-20">
          <mxGeometry relative="1" as="geometry">
            <Array as="points">
              <mxPoint x="-230" y="-350" />
            </Array>
          </mxGeometry>
        </mxCell>
        <mxCell id="imlky3PJbBzfM2MdHc2w-41" style="edgeStyle=orthogonalEdgeStyle;rounded=0;orthogonalLoop=1;jettySize=auto;html=1;entryX=0.5;entryY=0;entryDx=0;entryDy=0;endArrow=none;endFill=0;" edge="1" parent="1" source="imlky3PJbBzfM2MdHc2w-37" target="imlky3PJbBzfM2MdHc2w-38">
          <mxGeometry relative="1" as="geometry" />
        </mxCell>
        <mxCell id="imlky3PJbBzfM2MdHc2w-73" value="&lt;i&gt;&lt;b&gt;N&lt;/b&gt;&lt;/i&gt;" style="edgeLabel;html=1;align=center;verticalAlign=middle;resizable=0;points=[];" vertex="1" connectable="0" parent="imlky3PJbBzfM2MdHc2w-41">
          <mxGeometry x="-0.2719" relative="1" as="geometry">
            <mxPoint as="offset" />
          </mxGeometry>
        </mxCell>
        <mxCell id="imlky3PJbBzfM2MdHc2w-37" value="Quarto" style="rounded=0;whiteSpace=wrap;html=1;" vertex="1" parent="1">
          <mxGeometry x="-600" y="-435" width="120" height="60" as="geometry" />
        </mxCell>
        <mxCell id="imlky3PJbBzfM2MdHc2w-42" style="edgeStyle=orthogonalEdgeStyle;rounded=0;orthogonalLoop=1;jettySize=auto;html=1;entryX=0.5;entryY=0;entryDx=0;entryDy=0;endArrow=none;endFill=0;" edge="1" parent="1" source="imlky3PJbBzfM2MdHc2w-38" target="imlky3PJbBzfM2MdHc2w-39">
          <mxGeometry relative="1" as="geometry">
            <Array as="points">
              <mxPoint x="-540" y="-210" />
              <mxPoint x="-540" y="-210" />
            </Array>
          </mxGeometry>
        </mxCell>
        <mxCell id="imlky3PJbBzfM2MdHc2w-74" value="&lt;b&gt;&lt;i&gt;1&lt;/i&gt;&lt;/b&gt;" style="edgeLabel;html=1;align=center;verticalAlign=middle;resizable=0;points=[];" vertex="1" connectable="0" parent="imlky3PJbBzfM2MdHc2w-42">
          <mxGeometry x="-0.0246" y="1" relative="1" as="geometry">
            <mxPoint as="offset" />
          </mxGeometry>
        </mxCell>
        <mxCell id="imlky3PJbBzfM2MdHc2w-38" value="Possuí" style="rhombus;whiteSpace=wrap;html=1;" vertex="1" parent="1">
          <mxGeometry x="-580" y="-315" width="80" height="70" as="geometry" />
        </mxCell>
        <mxCell id="imlky3PJbBzfM2MdHc2w-39" value="Tipo" style="rounded=0;whiteSpace=wrap;html=1;" vertex="1" parent="1">
          <mxGeometry x="-600" y="-170" width="120" height="60" as="geometry" />
        </mxCell>
        <mxCell id="imlky3PJbBzfM2MdHc2w-40" style="edgeStyle=orthogonalEdgeStyle;rounded=0;orthogonalLoop=1;jettySize=auto;html=1;entryX=1.008;entryY=0.423;entryDx=0;entryDy=0;entryPerimeter=0;endArrow=none;endFill=0;" edge="1" parent="1" source="imlky3PJbBzfM2MdHc2w-25" target="imlky3PJbBzfM2MdHc2w-37">
          <mxGeometry relative="1" as="geometry" />
        </mxCell>
        <mxCell id="imlky3PJbBzfM2MdHc2w-72" value="&lt;i&gt;&lt;b&gt;1&lt;/b&gt;&lt;/i&gt;" style="edgeLabel;html=1;align=center;verticalAlign=middle;resizable=0;points=[];" vertex="1" connectable="0" parent="imlky3PJbBzfM2MdHc2w-40">
          <mxGeometry x="-0.1146" y="1" relative="1" as="geometry">
            <mxPoint as="offset" />
          </mxGeometry>
        </mxCell>
        <mxCell id="imlky3PJbBzfM2MdHc2w-45" style="edgeStyle=orthogonalEdgeStyle;rounded=0;orthogonalLoop=1;jettySize=auto;html=1;entryX=0.5;entryY=0;entryDx=0;entryDy=0;endArrow=none;endFill=0;" edge="1" parent="1" source="imlky3PJbBzfM2MdHc2w-44" target="imlky3PJbBzfM2MdHc2w-24">
          <mxGeometry relative="1" as="geometry" />
        </mxCell>
        <mxCell id="imlky3PJbBzfM2MdHc2w-75" value="&lt;b&gt;&lt;i&gt;N&lt;/i&gt;&lt;/b&gt;" style="edgeLabel;html=1;align=center;verticalAlign=middle;resizable=0;points=[];" vertex="1" connectable="0" parent="imlky3PJbBzfM2MdHc2w-45">
          <mxGeometry x="-0.1696" y="1" relative="1" as="geometry">
            <mxPoint as="offset" />
          </mxGeometry>
        </mxCell>
        <mxCell id="imlky3PJbBzfM2MdHc2w-44" value="Enfermeiro" style="rounded=0;whiteSpace=wrap;html=1;" vertex="1" parent="1">
          <mxGeometry x="-250" y="-760" width="120" height="60" as="geometry" />
        </mxCell>
        <mxCell id="imlky3PJbBzfM2MdHc2w-53" style="edgeStyle=orthogonalEdgeStyle;rounded=0;orthogonalLoop=1;jettySize=auto;html=1;entryX=0;entryY=0.5;entryDx=0;entryDy=0;endArrow=none;endFill=0;" edge="1" parent="1" source="imlky3PJbBzfM2MdHc2w-46" target="imlky3PJbBzfM2MdHc2w-44">
          <mxGeometry relative="1" as="geometry" />
        </mxCell>
        <mxCell id="imlky3PJbBzfM2MdHc2w-46" value="id_enfermeiro" style="ellipse;whiteSpace=wrap;html=1;align=center;fontStyle=4;" vertex="1" parent="1">
          <mxGeometry x="-312.5" y="-820" width="80" height="40" as="geometry" />
        </mxCell>
        <mxCell id="imlky3PJbBzfM2MdHc2w-47" value="Nome" style="ellipse;whiteSpace=wrap;html=1;" vertex="1" parent="1">
          <mxGeometry x="-180" y="-870" width="70" height="40" as="geometry" />
        </mxCell>
        <mxCell id="imlky3PJbBzfM2MdHc2w-48" value="crm" style="ellipse;whiteSpace=wrap;html=1;" vertex="1" parent="1">
          <mxGeometry x="-260" y="-870" width="70" height="40" as="geometry" />
        </mxCell>
        <mxCell id="imlky3PJbBzfM2MdHc2w-52" style="edgeStyle=orthogonalEdgeStyle;rounded=0;orthogonalLoop=1;jettySize=auto;html=1;entryX=1;entryY=0.25;entryDx=0;entryDy=0;endArrow=none;endFill=0;" edge="1" parent="1" source="imlky3PJbBzfM2MdHc2w-49" target="imlky3PJbBzfM2MdHc2w-44">
          <mxGeometry relative="1" as="geometry" />
        </mxCell>
        <mxCell id="imlky3PJbBzfM2MdHc2w-49" value="cpf" style="ellipse;whiteSpace=wrap;html=1;" vertex="1" parent="1">
          <mxGeometry x="-140" y="-820" width="70" height="40" as="geometry" />
        </mxCell>
        <mxCell id="imlky3PJbBzfM2MdHc2w-50" style="edgeStyle=orthogonalEdgeStyle;rounded=0;orthogonalLoop=1;jettySize=auto;html=1;entryX=0.206;entryY=-0.011;entryDx=0;entryDy=0;entryPerimeter=0;endArrow=none;endFill=0;" edge="1" parent="1" source="imlky3PJbBzfM2MdHc2w-48" target="imlky3PJbBzfM2MdHc2w-44">
          <mxGeometry relative="1" as="geometry" />
        </mxCell>
        <mxCell id="imlky3PJbBzfM2MdHc2w-51" style="edgeStyle=orthogonalEdgeStyle;rounded=0;orthogonalLoop=1;jettySize=auto;html=1;entryX=0.872;entryY=-0.011;entryDx=0;entryDy=0;entryPerimeter=0;endArrow=none;endFill=0;" edge="1" parent="1" source="imlky3PJbBzfM2MdHc2w-47" target="imlky3PJbBzfM2MdHc2w-44">
          <mxGeometry relative="1" as="geometry" />
        </mxCell>
        <mxCell id="imlky3PJbBzfM2MdHc2w-54" value="id_quarto" style="ellipse;whiteSpace=wrap;html=1;align=center;fontStyle=4;" vertex="1" parent="1">
          <mxGeometry x="-620" y="-509" width="70" height="40" as="geometry" />
        </mxCell>
        <mxCell id="imlky3PJbBzfM2MdHc2w-57" style="edgeStyle=orthogonalEdgeStyle;rounded=0;orthogonalLoop=1;jettySize=auto;html=1;entryX=0.5;entryY=0;entryDx=0;entryDy=0;endArrow=none;endFill=0;" edge="1" parent="1" source="imlky3PJbBzfM2MdHc2w-55" target="imlky3PJbBzfM2MdHc2w-37">
          <mxGeometry relative="1" as="geometry" />
        </mxCell>
        <mxCell id="imlky3PJbBzfM2MdHc2w-55" value="Número" style="ellipse;whiteSpace=wrap;html=1;" vertex="1" parent="1">
          <mxGeometry x="-580" y="-554" width="80" height="45" as="geometry" />
        </mxCell>
        <mxCell id="imlky3PJbBzfM2MdHc2w-56" value="Tipo" style="ellipse;whiteSpace=wrap;html=1;" vertex="1" parent="1">
          <mxGeometry x="-510" y="-510" width="80" height="45" as="geometry" />
        </mxCell>
        <mxCell id="imlky3PJbBzfM2MdHc2w-58" style="edgeStyle=orthogonalEdgeStyle;rounded=0;orthogonalLoop=1;jettySize=auto;html=1;entryX=0.142;entryY=-0.011;entryDx=0;entryDy=0;entryPerimeter=0;endArrow=none;endFill=0;" edge="1" parent="1" target="imlky3PJbBzfM2MdHc2w-37">
          <mxGeometry relative="1" as="geometry">
            <mxPoint x="-587.16" y="-469" as="sourcePoint" />
            <mxPoint x="-582.84" y="-433.32000000000005" as="targetPoint" />
          </mxGeometry>
        </mxCell>
        <mxCell id="imlky3PJbBzfM2MdHc2w-59" style="edgeStyle=orthogonalEdgeStyle;rounded=0;orthogonalLoop=1;jettySize=auto;html=1;entryX=0.66;entryY=-0.015;entryDx=0;entryDy=0;entryPerimeter=0;endArrow=none;endFill=0;" edge="1" parent="1" source="imlky3PJbBzfM2MdHc2w-56" target="imlky3PJbBzfM2MdHc2w-37">
          <mxGeometry relative="1" as="geometry" />
        </mxCell>
        <mxCell id="imlky3PJbBzfM2MdHc2w-61" value="id_tipo" style="ellipse;whiteSpace=wrap;html=1;align=center;fontStyle=4;" vertex="1" parent="1">
          <mxGeometry x="-610" y="-70" width="70" height="40" as="geometry" />
        </mxCell>
        <mxCell id="imlky3PJbBzfM2MdHc2w-62" value="Descrição" style="ellipse;whiteSpace=wrap;html=1;" vertex="1" parent="1">
          <mxGeometry x="-520" y="-70" width="80" height="45" as="geometry" />
        </mxCell>
        <mxCell id="imlky3PJbBzfM2MdHc2w-63" value="Valor_diario" style="ellipse;whiteSpace=wrap;html=1;" vertex="1" parent="1">
          <mxGeometry x="-570" y="-5" width="80" height="45" as="geometry" />
        </mxCell>
        <mxCell id="imlky3PJbBzfM2MdHc2w-65" style="edgeStyle=orthogonalEdgeStyle;rounded=0;orthogonalLoop=1;jettySize=auto;html=1;entryX=0.198;entryY=1.02;entryDx=0;entryDy=0;entryPerimeter=0;endArrow=none;endFill=0;" edge="1" parent="1" source="imlky3PJbBzfM2MdHc2w-61" target="imlky3PJbBzfM2MdHc2w-39">
          <mxGeometry relative="1" as="geometry">
            <Array as="points">
              <mxPoint x="-576" y="-90" />
              <mxPoint x="-576" y="-90" />
            </Array>
          </mxGeometry>
        </mxCell>
        <mxCell id="imlky3PJbBzfM2MdHc2w-66" style="edgeStyle=orthogonalEdgeStyle;rounded=0;orthogonalLoop=1;jettySize=auto;html=1;entryX=0.833;entryY=1;entryDx=0;entryDy=0;entryPerimeter=0;endArrow=none;endFill=0;" edge="1" parent="1" source="imlky3PJbBzfM2MdHc2w-62" target="imlky3PJbBzfM2MdHc2w-39">
          <mxGeometry relative="1" as="geometry">
            <Array as="points">
              <mxPoint x="-480" y="-110" />
            </Array>
          </mxGeometry>
        </mxCell>
        <mxCell id="imlky3PJbBzfM2MdHc2w-67" style="edgeStyle=orthogonalEdgeStyle;rounded=0;orthogonalLoop=1;jettySize=auto;html=1;entryX=0.583;entryY=1;entryDx=0;entryDy=0;entryPerimeter=0;endArrow=none;endFill=0;" edge="1" parent="1" source="imlky3PJbBzfM2MdHc2w-63" target="imlky3PJbBzfM2MdHc2w-39">
          <mxGeometry relative="1" as="geometry" />
        </mxCell>
      </root>
    </mxGraphModel>
  </diagram>
</mxfile>
